<svg xmlns="http://www.w3.org/2000/svg" viewBox="0 0 41.1 36.9"><path d="M34.7 36.9H2.5c-.7 0-1.3-.3-1.8-.7-.4-.5-.7-1.1-.7-1.8V4.5c0-.2.1-.3.2-.4.1-.1.2-.2.4-.2s.3.1.4.2c.1.1.2.3.2.4v29.9c0 .3.1.7.4.9.2.2.6.4.9.4h32.2c.3 0 .7-.1.9-.4.2-.2.4-.6.4-.9v-8.1c0-.2.1-.3.2-.4s.3-.2.4-.2.3.1.4.2c.1.1.2.3.2.4v8.1c0 .7-.3 1.3-.7 1.8-.5.4-1.2.7-1.8.7z" fill="#98e3e9"/><path d="M36.6 19.6c-.2 0-.3-.1-.4-.2-.2-.1-.2-.2-.2-.4v-8.7c0-.3-.1-.7-.4-.9-.2-.2-.6-.4-.9-.4H4.2c-.2.1-.4 0-.5-.1-.1-.1-.1-.3-.1-.4s.1-.3.2-.4c0-.2.2-.2.4-.2h30.5c.7 0 1.3.3 1.8.7.5.5.7 1.1.7 1.8V19c0 .2-.1.3-.2.4s-.3.2-.4.2z" fill="#98e3e9"/><path d="M32.2 9.1H4.4c-1.2 0-2.3-.5-3.1-1.3C.5 7 0 5.8 0 4.7v-.3c0-1.2.5-2.3 1.3-3.1C2.1.5 3.2 0 4.4 0H30c.8 0 1.5.3 2 .8s.8 1.3.8 2v5.8c0 .1-.1.1-.1.2-.1.1-.2.2-.3.2 0 .1-.1.1-.2.1zM4.4 1.2c-.9 0-1.7.3-2.3.9-.6.6-.9 1.4-.9 2.3v.3c0 .9.3 1.7.9 2.3.6.6 1.4.9 2.3.9h27.2v-5c0-.4-.2-.9-.5-1.2-.3-.3-.7-.5-1.2-.5H4.4zM38.6 27h-6.3c-.8 0-1.7-.3-2.4-.7s-1.2-1.1-1.6-1.9c-.3-.8-.4-1.6-.2-2.5.2-.8.6-1.6 1.2-2.2.4-.4.9-.7 1.4-.9.5-.2 1.1-.3 1.6-.3H39c.1 0 .2 0 .3-.1.1 0 .2-.1.3-.2.2-.2.3-.4.3-.6 0-.2.1-.3.2-.4.1-.1.3-.2.4-.2s.3.1.4.2c.1.1.2.3.2.4v6.9c0 .7-.3 1.3-.7 1.8-.5.4-1.1.7-1.8.7zm-6.3-7.4c-.8 0-1.6.3-2.2.9-.6.6-.9 1.4-.9 2.2 0 .8.3 1.6.9 2.2.6.6 1.4.9 2.2.9h6.3c.3 0 .7-.1.9-.4.2-.2.4-.6.4-.9v-5.1c-.3.1-.6.2-.9.2h-6.7z" fill="#98e3e9"/><path d="M39 19.6h-2.5c-.2 0-.3-.1-.4-.2-.1-.1-.1-.2-.1-.4v-3c0-.2.1-.3.2-.4.1-.1.3-.2.4-.2H39c.6 0 1.1.2 1.5.6.4.4.6.9.6 1.5s-.2 1.1-.6 1.5c-.4.4-.9.6-1.5.6zm-1.9-1.2H39c.1 0 .2 0 .3-.1.1 0 .2-.1.3-.2.1-.1.2-.3.3-.5 0-.2 0-.4-.1-.5-.1-.2-.2-.3-.3-.4-.2-.1-.3-.2-.5-.2h-1.9v1.9zM32.6 24.5c-.4 0-.7-.1-1.1-.3-.3-.2-.6-.5-.7-.9-.1-.4-.2-.7-.1-1.1s.3-.7.5-1c.3-.3.6-.5 1-.5.4-.1.8 0 1.1.1.3.1.6.4.9.7.2.3.3.7.3 1.1 0 .5-.2 1-.6 1.4-.3.3-.8.5-1.3.5zm0-2.6c-.1 0-.3 0-.4.1l-.3.3c-.1.1-.1.3 0 .4s.1.3.2.4c.1.1.2.2.4.2h.4c.1-.1.2-.1.3-.3.1-.1.1-.3.1-.4 0-.2-.1-.4-.2-.5-.1-.1-.3-.2-.5-.2z" fill="#98e3e9"/></svg>