<svg xmlns="http://www.w3.org/2000/svg" viewBox="0 0 26 34"><path d="M26 34H0V0h19l7 7v27zM1 33h24V7.5L18.5 1H1v32z" fill="#ffb800"/><path d="M25.5 7.8h-7.2V.5h1v6.2h6.2v1.1zM4.2 4H16v1H4.2V4zM4.2 10h15.2v1H4.2v-1zM4.2 15.5h17.5v1H4.2v-1zM4.2 21.2h9v1h-9v-1zM4.2 27h9v1h-9v-1zM19 26c-.7 0-1.5-.2-2.1-.6-.6-.4-1.1-1-1.4-1.7-.3-.7-.4-1.4-.2-2.2.1-.7.5-1.4 1-1.9s1.2-.9 1.9-1c.7-.1 1.5-.1 2.2.2.7.3 1.3.8 1.7 1.4.4.6.6 1.3.6 2.1 0 1-.4 1.9-1.1 2.6-.7.7-1.6 1.1-2.6 1.1zm0-6.5c-.5 0-1.1.2-1.5.5-.4.3-.8.7-1 1.2-.2.5-.3 1-.2 1.6s.4 1 .7 1.4.9.6 1.4.7 1.1.1 1.6-.2c.5-.2.9-.6 1.2-1 .3-.4.5-1 .5-1.5a2.732 2.732 0 00-2.7-2.7z" fill="#ffb800"/><path d="M21 30.5c-.1 0-.2 0-.3-.1L19 29.1l-1.7 1.3c-.1.1-.2.1-.3.1-.1 0-.2 0-.3-.1-.1 0-.2-.1-.2-.2s-.1-.2-.1-.3v-5.2c0-.1.1-.3.1-.4.1-.1.2-.1.4-.1s.3.1.4.1c.1.1.1.2.1.4V29l1.2-.9c.2-.1.3-.1.4-.1s.2 0 .3.1l1.2.9v-4.2c0-.1.1-.3.1-.4.1-.1.2-.1.4-.1s.3.1.4.1c.1.1.1.2.1.4V30c0 .1-.1.3-.1.4-.1 0-.3.1-.4.1z" fill="#ffb800"/></svg>