<svg xmlns="http://www.w3.org/2000/svg" viewBox="0 0 28.5 35.9"><path d="M14.3 35.9c-.1 0-.2 0-.3-.1C4.1 29 0 22 0 11.6V6.8c0-.1 0-.2.1-.3l.2-.2L14.1 0h.4l13.8 6.3c.1 0 .2.1.2.2.1.1.1.2.1.3v4.8c0 10.3-4 17.4-14 24.2-.1.1-.2.1-.3.1zM1 7.2v4.4c0 11.5 5.3 17.6 13.2 23.2 8-5.6 13.2-11.7 13.2-23.2V7.2L14.3 1.1 1 7.2z" fill="#ff6449"/><path d="M14.3 32.3c-.1 0-.2 0-.3-.1-5.7-4.3-11-9.7-11-20.7V8.7c0-.1 0-.2.1-.3l.2-.2 10.8-5h.4l10.8 5c.1 0 .2.1.2.2.1.1.1.2.1.3v2.8c0 10.9-5.3 16.4-11 20.6-.1.2-.2.2-.3.2zM4 9.1v2.5c0 8.3 3 14.1 10.3 19.6 7.3-5.5 10.3-11.2 10.3-19.6V9.1L14.3 4.3 4 9.1z" fill="#ff6449"/><path d="M12.1 20.1c-.1 0-.3-.1-.4-.2l-3-3s-.1-.1-.1-.2v-.2-.2c0-.1.1-.1.1-.2 0 0 .1-.1.2-.1h.4c.1 0 .1.1.2.1l2.6 2.6 6.9-6.9s.1-.1.2-.1h.4c.1 0 .1.1.2.1 0 0 .1.1.1.2v.4c0 .1-.1.1-.1.2l-7.3 7.3c-.1.1-.2.2-.4.2z" fill="#ff6449"/></svg>