<svg xmlns="http://www.w3.org/2000/svg" viewBox="0 0 44.2 37.2"><path d="M39.3 13.4c0-.1-.1-.1-.2-.2-.1 0-.2-.1-.3-.1-.1 0-.2 0-.3.1l-.2.2-4.8 7.4c-.1.1-.1.2-.1.3 0 .1 0 .2.1.3 0 .1.1.2.2.2.1.1.2.1.3.1h4.1c-.6 4.1-2.6 7.9-5.8 10.6-3 2.6-6.7 4-10.3 4-2.3 0-4.7-.6-7-1.8-2.4-1.2-4.4-3-6-5.1 0-.1-.1-.1-.2-.1s-.1-.1-.2-.1h-.2c-.1 0-.1 0-.2.1-.1 0-.1.1-.1.2s-.1.1-.1.2v.2c0 .1.1.1.1.2 1.7 2.3 3.8 4.1 6.3 5.4 2.4 1.3 5 1.9 7.5 1.9 3.8 0 7.8-1.6 11-4.3 3.4-2.9 5.6-7 6.2-11.4h4.5c.1 0 .2 0 .3-.1.1-.1.2-.1.2-.2s.1-.2.1-.3c0-.1 0-.2-.1-.3l-4.8-7.4zM35 20.5l3.8-5.8 3.8 5.8H35zM10.7 15.9c0-.1-.1-.2-.2-.2-.1-.1-.2-.1-.3-.1H6.1c.6-4.1 2.6-7.9 5.8-10.6 3-2.6 6.7-4 10.3-4 2.3 0 4.7.6 7 1.8 2.4 1.2 4.4 3 6 5.1 0 .1.1.1.2.1s.1.1.2.1h.2c.1 0 .1 0 .2-.1-.1.1 0 0 0 0 0-.1.1-.1.1-.2v-.2c-.1-.1-.1-.2-.1-.2-1.7-2.3-3.8-4.1-6.3-5.4C27.3.7 24.7.1 22.2.1c-3.8 0-7.8 1.6-11 4.3-3.4 2.9-5.6 7-6.2 11.4H.5c-.1 0-.2 0-.3.1-.1.1-.2.1-.2.2v.1c0 .1 0 .2.1.3l4.8 7.4c.1 0 .1.1.2.1s.2.1.3.1.2 0 .3-.1l.2-.2 4.8-7.4c.1-.1.1-.2.1-.3s-.1-.1-.1-.2zm-5.3 6.7l-3.8-5.8h7.7l-3.9 5.8z" fill="#79abef"/><path d="M22.3 6.1c-.1 0-.2-.1-.2-.1s-.2 0-.2.1l-9.5 4.7c-.1 0-.2.1-.2.2s-.2.2-.2.3v9c0 2.3 1.5 5.2 3.4 6.5l6.4 4.3c.1.1.2.1.3.1.1 0 .2 0 .3-.1l6.4-4.3c1.9-1.3 3.4-4.1 3.4-6.5v-8.9c0-.1 0-.2-.1-.3-.1-.1-.1-.2-.2-.2l-9.6-4.8zm8.8 14.2c0 2-1.3 4.5-2.9 5.6L22.1 30l-6-4.1c-1.6-1.1-2.9-3.6-2.9-5.6v-8.6l9-4.4 9 4.4v8.6z" fill="#79abef"/><path d="M18.4 18c-.1-.1-.1-.1-.2-.1h-.4c-.1 0-.1.1-.2.1 0 .1-.1.1-.1.2v.4c0 .1.1.1.1.2l2.9 2.8c.1.1.2.2.4.2.1 0 .3-.1.4-.2l5.2-5.1c.1-.1.2-.2.2-.4 0-.1-.1-.3-.2-.4-.1-.1-.2-.2-.4-.2-.1 0-.3.1-.4.1l-4.8 4.7-2.5-2.3z" fill="#79abef"/></svg>