<svg xmlns="http://www.w3.org/2000/svg" viewBox="0 0 27.3 41"><path d="M0 35.1c0 1.2.3 2.4.9 3.4.6 1 1.5 1.8 2.6 2.4.1.1.2.1.3.1.1 0 .2 0 .3-.1l.2-.2c0-.1.1-.2.1-.3v-3.1l2-1.3 2 1.4v3c0 .1 0 .2.1.3 0 .1.1.2.2.2-.1 0 0 .1.1.1s.2 0 .3-.1c1.3-.7 2.3-1.7 2.9-3.1l1 .1c.1 0 .3 0 .4-.1.1-.1.2-.2.2-.4l.5-2.8c1.2-.2 2.4-.6 3.4-1.2l2 2c.1.1.2.2.4.2.1 0 .3 0 .4-.1l3.2-2.9c.1-.1.2-.2.2-.4 0-.1 0-.3-.1-.4L22 29.5c.7-1 1.3-2.1 1.6-3.3l2.8-.1c.1 0 .3-.1.4-.2.1-.1.2-.2.2-.4l.3-4.4c0-.1 0-.3-.1-.4-.1-.1-.2-.2-.4-.2l-2.7-.5c-.2-1.2-.6-2.4-1.2-3.5l1.9-2.1c.1-.1.2-.2.2-.4 0-.1 0-.3-.1-.4l-2.8-3.3c-.1-.1-.2-.2-.4-.2-.1 0-.3 0-.4.1L19 11.8c-1-.7-2.1-1.3-3.2-1.7l-.1-2.9c0-.1-.1-.3-.2-.4-.1-.1-.2-.2-.4-.2l-2.6-.2c.1-1.3-.1-2.6-.7-3.8-.6-1.2-1.6-2.1-2.7-2.7C9 0 9 0 8.9 0s-.2 0-.3.1c-.1 0-.2.1-.2.2s-.1.2-.1.3v3.1L6.4 5l-2-1.4v-3c0-.1 0-.2-.1-.3 0-.1-.1-.2-.2-.2C4 0 3.9 0 3.8 0c-.1 0-.2 0-.3.1C2.4.6 1.6 1.4.9 2.4S0 4.7 0 5.9c0 2.5 1.5 4.9 3.7 5.9v17.5c-2.2 1-3.7 3.3-3.7 5.8zM14.6 7.9l.1 2.7c0 .1 0 .2.1.3.1.1.2.2.3.2 1.3.4 2.5 1 3.6 1.9.1.1.2.1.3.1.1 0 .2 0 .3-.1l2.2-1.6 2.1 2.5-1.8 2c-.1.1-.1.2-.2.3 0 .1 0 .3.1.4.7 1.2 1.1 2.5 1.3 3.9 0 .1.1.2.2.3.1.1.2.1.3.2l2.6.5-.2 3.3-2.6.1c-.1 0-.2 0-.3.1-.1.1-.2.2-.2.3-.4 1.3-1 2.6-1.8 3.7-.1.1-.1.2-.1.3 0 .1 0 .2.1.3l1.6 2.2-2.6 2.3-1.9-1.9c-.1-.1-.2-.1-.3-.2-.1 0-.2 0-.4.1-1.2.7-2.5 1.1-3.8 1.3-.1 0-.2.1-.3.2-.1.1-.1.2-.2.3l-.4 2.7h-.2c.1-.5.2-1 .2-1.6 0-1.4-.4-2.7-1.2-3.8h.6c1.3 0 2.6-.3 3.8-.9s2.2-1.4 3.1-2.4c.8-1 1.4-2.2 1.8-3.5.3-1.3.4-2.6.2-4-.2-1.3-.7-2.6-1.5-3.7s-1.7-2-2.9-2.7c-1.1-.7-2.4-1.1-3.7-1.2-1.3-.1-2.6.1-3.8.5v-1.8c.8-.4 1.6-1 2.1-1.6.6-.7 1-1.5 1.3-2.4l2.1.4zm-4.5 22c-.4-.3-.7-.5-1.2-.7V14.8c1.1-.5 2.4-.7 3.6-.6 1.2.1 2.4.5 3.5 1.1 1.1.7 2 1.6 2.6 2.6.7 1.1 1 2.3 1.1 3.6.1 1.3-.1 2.5-.6 3.7-.5 1.2-1.2 2.2-2.2 3-1 .8-2.1 1.4-3.3 1.7-1.1.3-2.3.3-3.5 0zM4.5 10.8c-1-.4-1.8-1.1-2.4-1.9-.6-.9-.9-2-1-3 0-.8.2-1.6.5-2.4.4-.7.9-1.4 1.6-1.9v2.2c0 .1 0 .2.1.3 0 .1.1.2.2.2L6 6.2c.1.1.2.1.3.1.1 0 .2 0 .3-.1l2.6-1.7.2-.2c0-.1.1-.2.1-.3V1.6c.6.5 1.1 1.1 1.5 1.9.3.7.5 1.5.5 2.3 0 1.1-.3 2.1-.9 3-.6.9-1.4 1.6-2.4 1.9-.1 0-.2.1-.3.2-.1.1-.1.2-.1.3v18.2c0 .1 0 .2.1.3 0 .3.1.4.2.5 1.3.5 2.3 1.5 2.9 2.8.6 1.3.6 2.7.1 4v.1c-.3.9-.9 1.7-1.7 2.3v-2.2c0-.1 0-.2-.1-.3 0-.1-.1-.2-.2-.2l-2.6-1.8c-.1-.1-.2-.1-.3-.1-.1 0-.2 0-.3.1l-2.6 1.7-.2.2c0 .1-.1.2-.1.3v2.3c-.6-.5-1.1-1.1-1.5-1.9-.4-.7-.5-1.5-.5-2.3 0-1.1.3-2.1.9-3 .6-.9 1.5-1.6 2.4-1.9.1 0 .2-.1.3-.2.1-.1.1-.2.1-.3V11.4c0-.1 0-.2-.1-.3s0-.2-.1-.3z" fill="#91d0c0"/></svg>