<svg xmlns="http://www.w3.org/2000/svg" viewBox="0 0 37.8 37.8"><path d="M36.2 37.8H1.6c-.4 0-.8-.2-1.1-.5-.3-.3-.5-.7-.5-1.1v-24c0-.1.1-.3.2-.4.1-.1.2-.2.4-.2h36.8c.1 0 .3.1.4.2.1.1.2.2.2.4v24c0 .4-.2.8-.5 1.1-.4.4-.9.5-1.3.5zm-35.1-25v23.4c0 .1.1.3.2.4.1.1.2.2.4.2h34.6c.1 0 .3-.1.4-.2.1-.1.2-.2.2-.4V12.8H1.1z" fill="#ffb6d6"/><path d="M.5 12.8c-.1 0-.3-.1-.4-.2 0-.1-.1-.2-.1-.4V5.4c0-.4.2-.8.5-1.2.3-.3.7-.5 1.1-.5h5.6c.1 0 .3.1.4.2.1.1.2.3.2.4 0 .1-.1.3-.2.4s-.2.2-.3.2H1.6c-.1 0-.3 0-.4.1-.1.1-.1.3-.1.4v6.8c0 .1-.1.3-.2.4-.1.1-.2.2-.4.2zM37.3 12.8c-.1 0-.3-.1-.4-.2-.1-.1-.2-.2-.2-.4V5.4c0-.1-.1-.3-.2-.4-.1-.1-.2-.2-.4-.2h-5.6c-.1 0-.3-.1-.4-.2s-.1-.1-.1-.3c0-.1.1-.3.2-.4.1-.1.2-.2.4-.2h5.6c.4 0 .8.2 1.1.5.3.3.5.7.5 1.1v6.8c0 .1-.1.3-.2.4 0 .2-.2.3-.3.3zM26.7 4.9H11.1c-.1 0-.3-.1-.4-.2s-.2-.2-.2-.4c0-.1.1-.3.2-.4.1-.1.2-.2.4-.2h15.6c.1 0 .3.1.4.2.1.1.2.2.2.4 0 .1-.1.3-.2.4-.1.1-.2.2-.4.2z" fill="#ffb6d6"/><path d="M.5 12.8c-.1 0-.3-.1-.4-.2 0-.1-.1-.2-.1-.4V5.4c0-.4.2-.8.5-1.2.3-.3.7-.5 1.1-.5h5.6c.1 0 .3.1.4.2.1.1.2.3.2.4 0 .1-.1.3-.2.4s-.2.2-.3.2H1.6c-.1 0-.3 0-.4.1-.1.1-.1.3-.1.4v6.8c0 .1-.1.3-.2.4-.1.1-.2.2-.4.2zM37.3 12.8c-.1 0-.3-.1-.4-.2-.1-.1-.2-.2-.2-.4V5.4c0-.1-.1-.3-.2-.4-.1-.1-.2-.2-.4-.2h-5.6c-.1 0-.3-.1-.4-.2s-.1-.1-.1-.3c0-.1.1-.3.2-.4.1-.1.2-.2.4-.2h5.6c.4 0 .8.2 1.1.5.3.3.5.7.5 1.1v6.8c0 .1-.1.3-.2.4 0 .2-.2.3-.3.3zM26.7 4.9H11.1c-.1 0-.3-.1-.4-.2s-.2-.2-.2-.4c0-.1.1-.3.2-.4.1-.1.2-.2.4-.2h15.6c.1 0 .3.1.4.2.1.1.2.2.2.4 0 .1-.1.3-.2.4-.1.1-.2.2-.4.2z" fill="#ffb6d6"/><path d="M28.6 8.6c-.7 0-1.3-.3-1.8-.7s-.7-1.1-.7-1.8V2.5c0-.7.3-1.3.7-1.8.6-.4 1.2-.7 1.8-.7.7 0 1.3.3 1.8.7.5.5.7 1.1.7 1.8v3.7c0 .7-.3 1.3-.7 1.8-.5.4-1.1.6-1.8.6zm0-7.5c-.4 0-.7.1-1 .4-.3.3-.4.6-.4 1v3.7c0 .2 0 .4.1.5.1.2.2.3.3.5.1.1.3.2.5.3.2.1.4.1.5.1.2 0 .4 0 .5-.1.2-.1.3-.2.5-.3.1-.1.2-.3.3-.5.1-.2.1-.4.1-.5V2.5c0-.4-.1-.7-.4-1-.2-.3-.6-.4-1-.4zM9.2 8.6c-.7 0-1.3-.3-1.8-.7-.4-.5-.7-1.1-.7-1.7V2.5c0-.3.1-.6.2-.9.1-.4.3-.6.5-.9.2-.2.5-.4.8-.5.3-.1.7-.2 1-.2.3 0 .6.1.9.2.3.1.6.3.8.5.2.2.4.5.5.8s.2.6.2.9v3.7c0 .7-.3 1.3-.7 1.8s-1.1.7-1.7.7zm0-7.5c-.4 0-.7.1-1 .4-.3.3-.4.6-.4 1v3.7c0 .4.1.7.4 1 .3.3.6.4 1 .4s.7-.1 1-.4c.3-.3.4-.6.4-1V2.5c0-.4-.1-.7-.4-1-.3-.3-.6-.4-1-.4zM32 20.4h-2.7c-.3 0-.6-.1-.8-.3-.2-.2-.3-.5-.3-.8v-2.2c0-.3.1-.6.3-.8.2-.2.5-.3.8-.3H32c.3 0 .6.1.8.3.2.2.3.5.3.8v2.2c0 .3-.1.6-.3.8-.2.2-.5.3-.8.3zm-2.7-3.2v2.2H32v-2.2h-2.7zM24.2 20.4h-2.7c-.3 0-.6-.1-.8-.3-.2-.2-.3-.5-.3-.8v-2.2c0-.3.1-.6.3-.8.2-.2.5-.3.8-.3h2.7c.3 0 .6.1.8.3.2.2.3.5.3.8v2.2c0 .3-.1.6-.3.8-.2.2-.5.3-.8.3zm-2.7-3.2v2.2h2.7v-2.2h-2.7zM16.4 20.4h-2.7c-.3 0-.6-.1-.8-.3-.2-.2-.3-.5-.3-.8v-2.2c0-.3.1-.6.3-.8.2-.2.5-.3.8-.3h2.7c.3 0 .6.1.8.3.2.2.3.5.3.8v2.2c0 .3-.1.6-.3.8-.3.2-.6.3-.8.3zm-2.8-3.2v2.2h2.7v-2.2h-2.7zM32 26.9h-2.7c-.3 0-.6-.1-.8-.3-.2-.2-.3-.5-.3-.8v-2.2c0-.3.1-.6.3-.8.2-.2.5-.3.8-.3H32c.3 0 .6.1.8.3.2.2.3.5.3.8v2.2c0 .3-.1.6-.3.8-.2.2-.5.3-.8.3zm-2.7-3.2v2.2H32v-2.2h-2.7zM24.2 26.9h-2.7c-.3 0-.6-.1-.8-.3-.2-.2-.3-.5-.3-.8v-2.2c0-.3.1-.6.3-.8.2-.2.5-.3.8-.3h2.7c.3 0 .6.1.8.3.2.2.3.5.3.8v2.2c0 .3-.1.6-.3.8-.2.2-.5.3-.8.3zm-2.7-3.2v2.2h2.7v-2.2h-2.7zM16.4 26.9h-2.7c-.3 0-.6-.1-.8-.3-.2-.2-.3-.5-.3-.8v-2.2c0-.3.1-.6.3-.8.2-.2.5-.3.8-.3h2.7c.3 0 .6.1.8.3.2.2.3.5.3.8v2.2c0 .3-.1.6-.3.8-.3.2-.6.3-.8.3zm-2.8-3.2v2.2h2.7v-2.2h-2.7zM8.5 26.9H5.8c-.3 0-.6-.1-.8-.3-.2-.2-.3-.5-.3-.8v-2.2c0-.3.1-.6.3-.8.2-.2.5-.3.8-.3h2.7c.3 0 .6.1.8.3.2.2.3.5.3.8v2.2c0 .3-.1.6-.3.8-.2.2-.5.3-.8.3zm-2.7-3.2v2.2h2.7v-2.2H5.8zM24.2 33.4h-2.7c-.3 0-.6-.1-.8-.3-.2-.2-.3-.5-.3-.8v-2.2c0-.3.1-.6.3-.8.2-.2.5-.3.8-.3h2.7c.3 0 .6.1.8.3.2.2.3.5.3.8v2.2c0 .3-.1.6-.3.8-.2.2-.5.3-.8.3zm-2.7-3.2v2.2h2.7v-2.2h-2.7zM16.4 33.4h-2.7c-.3 0-.6-.1-.8-.3-.2-.2-.3-.5-.3-.8v-2.2c0-.3.1-.6.3-.8.2-.2.5-.3.8-.3h2.7c.3 0 .6.1.8.3.2.2.3.5.3.8v2.2c0 .3-.1.6-.3.8-.3.2-.6.3-.8.3zm-2.8-3.2v2.2h2.7v-2.2h-2.7zM8.5 33.4H5.8c-.3 0-.6-.1-.8-.3-.2-.2-.3-.5-.3-.8v-2.2c0-.3.1-.6.3-.8.2-.2.5-.3.8-.3h2.7c.3 0 .6.1.8.3.2.2.3.5.3.8v2.2c0 .3-.1.6-.3.8-.2.2-.5.3-.8.3zm-2.7-3.2v2.2h2.7v-2.2H5.8z" fill="#ffb6d6"/></svg>